<?xml version="1.0" encoding="UTF-8"?>
<svg width="246px" height="57px" viewBox="0 0 246 57" version="1.1" xmlns="http://www.w3.org/2000/svg" xmlns:xlink="http://www.w3.org/1999/xlink">
    <!-- Generator: Sketch 51.3 (57544) - http://www.bohemiancoding.com/sketch -->
    <title>Logo</title>
    <desc>Created with Sketch.</desc>
    <defs></defs>
    <g id="Game" stroke="none" stroke-width="1" fill="none" fill-rule="evenodd">
        <g id="Multiplayer_fix_Name_01" transform="translate(-65.000000, -140.000000)" fill="#000000">
            <g id="Logo" transform="translate(65.000000, 140.000000)">
                <path d="M10.78,33.53 L0,0 L11.83,0 L17.22,17.92 L22.05,0 L33.39,0 L22.82,33.53 L22.82,56.7 L10.78,56.7 L10.78,33.53 Z M45.08,0 L59.36,0 L69.93,56.7 L58.38,56.7 L56.49,44.73 L48.16,44.73 L46.2,56.7 L34.37,56.7 L45.08,0 Z M55.3,37.24 L52.29,15.12 L49.28,37.24 L55.3,37.24 Z M77.63,0 L90.16,0 L90.16,22.96 L98.91,22.96 L98.91,0 L111.51,0 L111.51,56.7 L98.91,56.7 L98.91,31.92 L90.16,31.92 L90.16,56.7 L77.63,56.7 L77.63,0 Z M126.98,9.31 L118.44,9.31 L118.44,0 L148.05,0 L148.05,9.31 L139.58,9.31 L139.58,56.7 L126.98,56.7 L126.98,9.31 Z M152.6,49.14 L166.46,8.47 L153.23,8.47 L153.23,0 L178.78,0 L178.78,7.07 L164.71,48.23 L178.92,48.23 L178.92,56.7 L152.6,56.7 L152.6,49.14 Z M186.83,0 L212.31,0 L212.31,8.54 L199.36,8.54 L199.36,22.61 L209.23,22.61 L209.23,31.29 L199.36,31.29 L199.36,48.23 L212.45,48.23 L212.45,56.7 L186.83,56.7 L186.83,0 Z M219.87,0 L245.35,0 L245.35,8.54 L232.4,8.54 L232.4,22.61 L242.27,22.61 L242.27,31.29 L232.4,31.29 L232.4,48.23 L245.49,48.23 L245.49,56.7 L219.87,56.7 L219.87,0 Z" id="Yahtzee"></path>
            </g>
        </g>
    </g>
</svg>