<?xml version="1.0" encoding="UTF-8"?>
<svg width="70px" height="70px" viewBox="0 0 70 70" version="1.1" xmlns="http://www.w3.org/2000/svg" xmlns:xlink="http://www.w3.org/1999/xlink">
    <!-- Generator: Sketch 51.3 (57544) - http://www.bohemiancoding.com/sketch -->
    <title>Dice/6er/aktiv</title>
    <desc>Created with Sketch.</desc>
    <defs></defs>
    <g id="Dice/6er/aktiv" stroke="none" stroke-width="1" fill="none" fill-rule="evenodd">
        <g id="Group">
            <path d="M63.7136,70 L6.2856,70 C2.8196,70 -0.0004,67.18 -0.0004,63.714 L-0.0004,6.285 C-0.0004,2.819 2.8196,0 6.2856,0 L63.7136,0 C67.1806,0 69.9996,2.819 69.9996,6.285 L69.9996,63.714 C69.9996,67.18 67.1806,70 63.7136,70 Z" id="Fill-12" fill="#000000"></path>
            <path d="M22.9766,55.0537 C20.4916,55.0537 18.4766,53.0387 18.4766,50.5537 C18.4766,48.0687 20.4916,46.0537 22.9766,46.0537 C25.4616,46.0537 27.4766,48.0687 27.4766,50.5537 C27.4766,53.0387 25.4616,55.0537 22.9766,55.0537" id="Fill-45" fill="#FFDADD"></path>
            <path d="M22.9766,30.0537 C25.4616,30.0537 27.4766,32.0687 27.4766,34.5537 C27.4766,37.0387 25.4616,39.0537 22.9766,39.0537 C20.4916,39.0537 18.4766,37.0387 18.4766,34.5537 C18.4766,32.0687 20.4916,30.0537 22.9766,30.0537" id="Fill-47" fill="#FFDADD"></path>
            <path d="M22.9766,15.0537 C25.4616,15.0537 27.4766,17.0687 27.4766,19.5537 C27.4766,22.0387 25.4616,24.0537 22.9766,24.0537 C20.4916,24.0537 18.4766,22.0387 18.4766,19.5537 C18.4766,17.0687 20.4916,15.0537 22.9766,15.0537" id="Fill-49" fill="#FFDADD"></path>
            <path d="M46.9766,55.0537 C44.4916,55.0537 42.4766,53.0387 42.4766,50.5537 C42.4766,48.0687 44.4916,46.0537 46.9766,46.0537 C49.4616,46.0537 51.4766,48.0687 51.4766,50.5537 C51.4766,53.0387 49.4616,55.0537 46.9766,55.0537" id="Fill-51" fill="#FFDADD"></path>
            <path d="M46.9766,30.0537 C49.4616,30.0537 51.4766,32.0687 51.4766,34.5537 C51.4766,37.0387 49.4616,39.0537 46.9766,39.0537 C44.4916,39.0537 42.4766,37.0387 42.4766,34.5537 C42.4766,32.0687 44.4916,30.0537 46.9766,30.0537" id="Fill-53" fill="#FFDADD"></path>
            <path d="M46.9766,15.0537 C49.4616,15.0537 51.4766,17.0687 51.4766,19.5537 C51.4766,22.0387 49.4616,24.0537 46.9766,24.0537 C44.4916,24.0537 42.4766,22.0387 42.4766,19.5537 C42.4766,17.0687 44.4916,15.0537 46.9766,15.0537" id="Fill-55" fill="#FFDADD"></path>
        </g>
    </g>
</svg>