<?xml version="1.0" encoding="UTF-8"?>
<svg width="70px" height="70px" viewBox="0 0 70 70" version="1.1" xmlns="http://www.w3.org/2000/svg" xmlns:xlink="http://www.w3.org/1999/xlink">
    <!-- Generator: Sketch 51.3 (57544) - http://www.bohemiancoding.com/sketch -->
    <title>Dice/3er/aktiv</title>
    <desc>Created with Sketch.</desc>
    <defs></defs>
    <g id="Dice/3er/aktiv" stroke="none" stroke-width="1" fill="none" fill-rule="evenodd">
        <g id="Group">
            <path d="M63.7136,70 L6.2856,70 C2.8196,70 -0.0004,67.18 -0.0004,63.714 L-0.0004,6.285 C-0.0004,2.819 2.8196,0 6.2856,0 L63.7136,0 C67.1806,0 69.9996,2.819 69.9996,6.285 L69.9996,63.714 C69.9996,67.18 67.1806,70 63.7136,70 Z" id="Fill-10" fill="#000000"></path>
            <path d="M22.9766,51.0537 C20.4916,51.0537 18.4766,49.0387 18.4766,46.5537 C18.4766,44.0687 20.4916,42.0537 22.9766,42.0537 C25.4616,42.0537 27.4766,44.0687 27.4766,46.5537 C27.4766,49.0387 25.4616,51.0537 22.9766,51.0537" id="Fill-39" fill="#FFDADD"></path>
            <path d="M34.9766,30.0537 C37.4616,30.0537 39.4766,32.0687 39.4766,34.5537 C39.4766,37.0387 37.4616,39.0537 34.9766,39.0537 C32.4916,39.0537 30.4766,37.0387 30.4766,34.5537 C30.4766,32.0687 32.4916,30.0537 34.9766,30.0537" id="Fill-41" fill="#FFDADD"></path>
            <path d="M46.9766,19.0537 C49.4616,19.0537 51.4766,21.0687 51.4766,23.5537 C51.4766,26.0387 49.4616,28.0537 46.9766,28.0537 C44.4916,28.0537 42.4766,26.0387 42.4766,23.5537 C42.4766,21.0687 44.4916,19.0537 46.9766,19.0537" id="Fill-43" fill="#FFDADD"></path>
        </g>
    </g>
</svg>