<?xml version="1.0" standalone="no"?><!-- Generator: Gravit.io --><svg xmlns="http://www.w3.org/2000/svg" xmlns:xlink="http://www.w3.org/1999/xlink" style="isolation:isolate" viewBox="237 102 56 90" width="56" height="90"><g><g><path d=" M 242.6 136 L 287.4 136 C 290.491 136 293 138.509 293 141.6 L 293 186.4 C 293 189.491 290.491 192 287.4 192 L 242.6 192 C 239.509 192 237 189.491 237 186.4 L 237 141.6 C 237 138.509 239.509 136 242.6 136 Z " fill="rgb(235,235,235)"/><path d=" M 265.082 168.896 L 259.686 168.896 L 259.686 167.384 L 259.686 167.384 Q 259.686 165.661 260.389 164.475 L 260.389 164.475 L 260.389 164.475 Q 261.092 163.288 262.885 162.163 L 262.885 162.163 L 262.885 162.163 Q 264.309 161.267 264.933 160.546 L 264.933 160.546 L 264.933 160.546 Q 265.557 159.825 265.557 158.894 L 265.557 158.894 L 265.557 158.894 Q 265.557 158.155 264.889 157.725 L 264.889 157.725 L 264.889 157.725 Q 264.221 157.294 263.148 157.294 L 263.148 157.294 L 263.148 157.294 Q 260.494 157.294 256.943 159.175 L 256.943 159.175 L 254.5 154.394 L 254.5 154.394 Q 258.877 151.897 263.641 151.897 L 263.641 151.897 L 263.641 151.897 Q 267.561 151.897 269.793 153.62 L 269.793 153.62 L 269.793 153.62 Q 272.025 155.343 272.025 158.313 L 272.025 158.313 L 272.025 158.313 Q 272.025 160.44 271.032 161.996 L 271.032 161.996 L 271.032 161.996 Q 270.039 163.552 267.859 164.94 L 267.859 164.94 L 267.859 164.94 Q 266.014 166.136 265.548 166.689 L 265.548 166.689 L 265.548 166.689 Q 265.082 167.243 265.082 167.999 L 265.082 167.999 L 265.082 168.896 L 265.082 168.896 Z  M 258.93 175.048 L 258.93 175.048 L 258.93 175.048 Q 258.93 173.431 259.87 172.552 L 259.87 172.552 L 259.87 172.552 Q 260.811 171.673 262.639 171.673 L 262.639 171.673 L 262.639 171.673 Q 264.396 171.673 265.337 172.561 L 265.337 172.561 L 265.337 172.561 Q 266.277 173.448 266.277 175.048 L 266.277 175.048 L 266.277 175.048 Q 266.277 176.647 265.302 177.526 L 265.302 177.526 L 265.302 177.526 Q 264.326 178.405 262.639 178.405 L 262.639 178.405 L 262.639 178.405 Q 260.898 178.405 259.914 177.535 L 259.914 177.535 L 259.914 177.535 Q 258.93 176.665 258.93 175.048 Z " fill="rgb(0,0,0)"/></g></g></svg>