<?xml version="1.0" encoding="UTF-8"?>
<svg width="70px" height="70px" viewBox="0 0 70 70" version="1.1" xmlns="http://www.w3.org/2000/svg" xmlns:xlink="http://www.w3.org/1999/xlink">
    <!-- Generator: Sketch 51.3 (57544) - http://www.bohemiancoding.com/sketch -->
    <title>Dice/2er/aktiv</title>
    <desc>Created with Sketch.</desc>
    <defs></defs>
    <g id="Dice/2er/aktiv" stroke="none" stroke-width="1" fill="none" fill-rule="evenodd">
        <g id="Group">
            <path d="M63.7136,70 L6.2856,70 C2.8196,70 -0.0004,67.18 -0.0004,63.714 L-0.0004,6.285 C-0.0004,2.819 2.8196,0 6.2856,0 L63.7136,0 C67.1806,0 69.9996,2.819 69.9996,6.285 L69.9996,63.714 C69.9996,67.18 67.1806,70 63.7136,70 Z" id="Fill-7" fill="#000000"></path>
            <path d="M26.9766,47.0537 C24.4916,47.0537 22.4766,45.0387 22.4766,42.5537 C22.4766,40.0687 24.4916,38.0537 26.9766,38.0537 C29.4616,38.0537 31.4766,40.0687 31.4766,42.5537 C31.4766,45.0387 29.4616,47.0537 26.9766,47.0537" id="Fill-35" fill="#FFDADD"></path>
            <path d="M42.9766,23.0537 C45.4616,23.0537 47.4766,25.0687 47.4766,27.5537 C47.4766,30.0387 45.4616,32.0537 42.9766,32.0537 C40.4916,32.0537 38.4766,30.0387 38.4766,27.5537 C38.4766,25.0687 40.4916,23.0537 42.9766,23.0537" id="Fill-37" fill="#FFDADD"></path>
        </g>
    </g>
</svg>