<?xml version="1.0" encoding="UTF-8"?>
<svg width="70px" height="70px" viewBox="0 0 70 70" version="1.1" xmlns="http://www.w3.org/2000/svg" xmlns:xlink="http://www.w3.org/1999/xlink">
    <!-- Generator: Sketch 51.3 (57544) - http://www.bohemiancoding.com/sketch -->
    <title>Dice/1er/passiv</title>
    <desc>Created with Sketch.</desc>
    <defs></defs>
    <g id="Dice/1er/passiv" stroke="none" stroke-width="1" fill="none" fill-rule="evenodd">
        <g id="Group" fill="#000000">
            <path d="M6.2856,3 C4.4736,3 2.9996,4.474 2.9996,6.285 L2.9996,63.714 C2.9996,65.525 4.4736,67 6.2856,67 L63.7136,67 C65.5256,67 66.9996,65.525 66.9996,63.714 L66.9996,6.285 C66.9996,4.474 65.5256,3 63.7136,3 L6.2856,3 Z M63.7136,70 L6.2856,70 C2.8196,70 -0.0004,67.18 -0.0004,63.714 L-0.0004,6.285 C-0.0004,2.819 2.8196,0 6.2856,0 L63.7136,0 C67.1806,0 69.9996,2.819 69.9996,6.285 L69.9996,63.714 C69.9996,67.18 67.1806,70 63.7136,70 Z" id="Fill-5"></path>
            <path d="M34.9766,30.0537 C37.4616,30.0537 39.4766,32.0687 39.4766,34.5537 C39.4766,37.0387 37.4616,39.0537 34.9766,39.0537 C32.4916,39.0537 30.4766,37.0387 30.4766,34.5537 C30.4766,32.0687 32.4916,30.0537 34.9766,30.0537" id="Fill-33"></path>
        </g>
    </g>
</svg>